<?xml version="1.0" standalone="no"?>
<!DOCTYPE svg PUBLIC "-//W3C//DTD SVG 20010904//EN"
 "http://www.w3.org/TR/2001/REC-SVG-20010904/DTD/svg10.dtd">
<svg version="1.0" xmlns="http://www.w3.org/2000/svg"
 width="1077.000000pt" height="1200.000000pt" viewBox="0 0 1077.000000 1200.000000"
 preserveAspectRatio="xMidYMid meet">
<metadata>
Created by potrace 1.15, written by Peter Selinger 2001-2017
</metadata>
<g transform="translate(0.000000,1200.000000) scale(0.100000,-0.100000)"
fill="#ffff00" stroke="none">
<path d="M9760 11780 c198 -53 338 -117 431 -197 66 -56 123 -128 116 -146 -5
-13 -34 -31 -167 -105 -133 -74 -274 -164 -455 -290 -111 -78 -403 -300 -492
-374 -52 -44 -96 -78 -98 -76 -29 35 -31 77 -5 128 11 22 20 43 20 48 0 5 -42
26 -92 47 -51 20 -101 41 -112 47 -13 7 -21 6 -26 -3 -12 -18 -1 -40 34 -72
18 -17 26 -30 20 -33 -20 -8 2 -74 36 -109 24 -25 34 -45 38 -80 4 -42 2 -49
-24 -72 -16 -14 -75 -71 -132 -127 -83 -81 -104 -98 -112 -86 -16 25 -11 83
10 125 11 22 20 44 20 51 0 16 -53 39 -58 25 -6 -17 -24 -12 -56 13 -16 14
-36 21 -47 19 -11 -3 -28 2 -38 11 -17 15 -19 15 -31 1 -12 -14 -9 -21 18 -46
27 -26 32 -37 32 -79 0 -43 4 -51 35 -77 30 -24 36 -36 41 -83 l6 -55 -59 -70
c-32 -38 -83 -101 -112 -140 -29 -38 -58 -70 -64 -70 -20 0 -27 66 -10 105 35
82 35 80 7 92 -14 7 -32 23 -40 37 -14 24 -15 24 -11 4 6 -28 6 -28 -42 -4
-26 14 -41 17 -48 10 -7 -7 -16 -4 -26 11 -10 14 -22 20 -31 17 -23 -9 -19
-33 8 -55 18 -14 27 -33 32 -69 4 -37 15 -59 39 -85 26 -29 33 -47 38 -97 10
-92 11 -91 -112 -91 -84 0 -122 -5 -183 -24 -94 -29 -179 -77 -227 -127 -34
-35 -38 -36 -61 -23 -14 7 -39 13 -57 14 -33 0 -57 26 -192 203 -38 50 -46 56
-59 44 -14 -15 10 -51 173 -260 42 -54 56 -87 37 -87 -12 0 -112 98 -112 110
0 5 -15 32 -33 58 -18 26 -46 69 -62 96 l-29 49 -23 -30 c-13 -16 -79 -118
-147 -225 -107 -170 -122 -199 -112 -216 15 -28 68 -100 148 -206 61 -80 83
-126 60 -126 -14 0 -100 94 -117 130 -10 19 -35 61 -56 92 -22 31 -39 61 -39
66 0 5 -7 15 -15 22 -12 10 -20 2 -51 -47 -20 -32 -79 -123 -131 -202 -68
-104 -93 -150 -89 -165 3 -12 55 -90 116 -175 60 -85 110 -158 110 -163 0 -4
-8 -8 -18 -8 -28 0 -73 57 -153 195 -40 69 -78 125 -84 125 -5 0 -27 -27 -49
-60 -21 -33 -40 -60 -43 -60 -2 0 -23 13 -46 29 -152 103 -361 159 -562 148
-106 -5 -158 -19 -116 -30 11 -3 21 -2 21 3 0 8 64 -11 75 -22 4 -3 -9 -16
-27 -29 -18 -13 -33 -22 -33 -20 0 8 -50 -12 -75 -30 -18 -14 -39 -18 -72 -16
-25 1 -44 -1 -42 -5 3 -5 0 -8 -5 -8 -6 0 -11 5 -11 10 0 6 -4 10 -10 10 -5 0
-10 -7 -10 -15 0 -8 5 -15 10 -15 6 0 10 -7 10 -16 0 -8 14 -29 30 -46 35 -35
38 -58 9 -84 -16 -14 -20 -27 -16 -51 5 -25 3 -31 -9 -26 -10 4 -15 1 -13 -8
1 -8 -3 -33 -11 -56 -9 -28 -17 -40 -27 -36 -7 3 -13 2 -12 -3 5 -20 -15 -86
-27 -91 -14 -5 -59 -73 -56 -85 1 -5 -3 -8 -8 -8 -6 0 -10 -7 -10 -16 0 -8 -4
-13 -9 -10 -5 4 -17 3 -26 0 -12 -5 -15 -14 -11 -35 3 -18 1 -29 -8 -32 -8 -3
-19 -27 -25 -54 -8 -39 -7 -50 4 -59 22 -17 18 -33 -11 -44 -14 -6 -22 -14
-19 -20 3 -5 -1 -10 -10 -10 -13 0 -14 -10 -10 -62 4 -34 8 -65 11 -69 2 -4 0
-11 -6 -14 -6 -4 -8 -15 -5 -25 3 -10 1 -22 -6 -25 -8 -6 -7 -10 2 -16 8 -4
14 -12 14 -16 0 -4 10 -22 23 -40 26 -37 29 -51 5 -32 -15 13 -16 11 -10 -19
4 -19 3 -31 -2 -27 -5 3 -7 -4 -4 -15 3 -11 9 -18 13 -15 5 3 12 0 16 -6 4 -8
3 -9 -4 -5 -7 4 -12 1 -12 -9 0 -12 -6 -15 -22 -9 -13 3 -29 11 -35 16 -9 7
-13 7 -13 -1 0 -6 5 -11 10 -11 6 0 10 -7 10 -15 0 -26 -30 -4 -39 29 -9 31
-9 31 -10 4 -1 -26 -21 -42 -21 -17 0 5 -5 7 -10 4 -6 -4 -8 -11 -5 -16 4 -5
1 -9 -6 -9 -10 0 -10 -3 -1 -12 7 -7 12 -16 12 -22 0 -6 -5 -5 -11 1 -17 17
-39 4 -39 -21 0 -12 -4 -26 -9 -31 -16 -18 -22 -65 -9 -65 7 0 -12 -13 -43
-28 -30 -15 -69 -38 -85 -49 -17 -12 -35 -19 -41 -15 -6 4 -21 84 -32 177 -33
255 -58 411 -66 403 -2 -2 -7 -60 -10 -128 -11 -255 -17 -333 -27 -359 -6 -14
-10 -33 -9 -41 2 -8 -1 -11 -6 -7 -12 13 -13 88 0 80 6 -4 7 -1 2 7 -9 14 -14
90 -6 90 11 0 4 71 -8 83 -8 8 -11 6 -12 -8 -1 -11 -1 -24 0 -29 1 -5 -1 -16
-4 -24 -8 -22 -34 4 -28 28 3 11 -5 33 -18 52 -13 18 -30 44 -37 58 -7 14 -10
17 -7 8 5 -22 -8 -23 -25 -3 -7 9 -21 13 -30 10 -11 -3 -20 1 -24 10 -3 9 -10
14 -14 11 -5 -3 -20 -7 -35 -10 -21 -4 -25 -1 -20 12 6 14 4 15 -8 5 -12 -10
-37 -11 -59 -3 -3 1 -8 2 -12 1 -8 -1 -12 15 -9 33 1 5 -5 4 -13 -4 -13 -10
-16 -10 -16 3 0 18 -39 49 -52 41 -4 -3 -5 1 -2 9 7 20 -16 33 -27 16 -7 -11
-9 -10 -9 4 0 10 -4 15 -10 12 -5 -3 -10 -1 -10 5 0 6 8 10 18 8 9 -2 18 4 18
12 1 8 2 21 3 28 1 9 6 10 21 2 15 -8 21 -6 30 10 6 11 9 24 6 29 -6 10 -36 8
-56 -4 -8 -4 -12 -5 -8 -1 3 4 2 20 -3 34 -8 23 -16 27 -53 30 -25 1 -56 -2
-69 -7 -25 -10 -47 2 -47 24 0 5 7 1 15 -9 8 -11 16 -17 16 -13 5 26 4 33 -4
44 -6 9 -4 15 7 19 10 4 15 13 12 20 -3 8 -1 14 4 14 6 0 10 6 10 14 0 8 11
13 28 14 15 0 39 2 54 5 21 4 25 2 21 -11 -4 -9 -2 -13 5 -8 6 3 13 2 16 -3 3
-5 15 -7 26 -4 11 3 17 9 14 15 -3 5 -14 6 -25 3 -10 -4 -19 -2 -19 4 0 5 -3
17 -7 27 -5 13 -3 16 10 11 11 -4 18 1 22 14 4 10 11 16 17 13 6 -4 14 -1 18
6 9 15 80 41 92 34 4 -3 8 2 8 11 0 9 4 13 10 10 6 -3 7 1 4 10 -5 11 -2 16 7
15 32 -5 60 1 54 10 -7 11 23 9 42 -3 9 -6 11 -3 6 9 -4 11 -3 15 4 11 6 -4
14 -1 16 5 3 8 6 6 6 -4 1 -23 27 -23 39 -1 6 10 16 14 26 10 10 -4 19 -1 22
8 3 7 11 12 18 9 7 -3 13 1 13 8 15 270 15 328 2 328 -8 0 -19 -4 -24 -9 -6
-5 -39 -19 -75 -32 -60 -21 -82 -23 -280 -25 l-215 -2 -6 -29 c-7 -36 -17 -53
-30 -53 -14 0 -11 48 6 80 20 39 10 60 -29 60 -39 0 -58 12 -54 35 2 13 -26
32 -121 81 -69 35 -132 64 -141 64 -20 0 -40 40 -40 77 0 26 0 26 20 8 18 -17
20 -17 14 -2 -7 20 6 22 25 5 12 -11 13 -9 6 7 -4 11 -11 32 -17 47 -8 22 -21
31 -69 44 -73 21 -127 71 -164 152 -14 32 -34 74 -45 94 -11 20 -20 44 -20 52
0 24 -19 29 -47 11 -46 -30 -48 -4 -5 81 54 108 64 145 46 179 -9 18 -14 60
-14 121 0 72 -4 102 -19 131 -11 21 -22 48 -26 61 l-7 23 24 -20 c38 -34 84
-86 68 -77 -8 5 -2 -3 14 -16 19 -16 26 -29 21 -38 -4 -7 -9 -24 -11 -36 -2
-24 15 -28 42 -11 15 9 24 -2 24 -28 0 -22 33 -101 68 -161 19 -32 52 -70 52
-59 0 3 13 -1 30 -10 33 -17 58 -19 79 -6 11 7 9 18 -10 60 -13 28 -27 51 -31
51 -5 0 -8 9 -8 20 0 11 -12 39 -27 63 l-26 42 -12 -28 c-16 -39 -25 -23 -18
32 6 43 5 45 -12 31 -16 -14 -17 -13 -11 16 5 24 2 34 -19 54 -22 20 -25 31
-20 58 5 27 0 43 -28 85 -37 57 -57 92 -57 102 0 10 26 -18 33 -35 4 -11 6
-11 6 3 1 11 -12 32 -29 47 -16 15 -30 34 -30 42 0 7 -9 20 -20 28 -11 8 -20
20 -20 28 0 17 -24 42 -41 42 -6 0 -21 10 -32 23 l-19 22 7 -25 c4 -14 8 -25
9 -26 0 0 12 -8 24 -16 l24 -16 -34 -38 c-22 -23 -39 -34 -47 -30 -7 5 -10 14
-7 22 4 10 0 14 -12 12 -13 -2 -18 5 -20 31 -5 49 5 78 28 84 16 4 20 13 20
51 0 25 -4 46 -10 46 -5 0 -10 7 -10 16 0 9 -13 29 -30 44 -16 15 -30 34 -30
42 0 7 -9 20 -20 28 -11 8 -20 25 -20 38 0 29 -22 52 -50 52 -22 0 -70 41 -70
60 0 14 -146 160 -160 160 -6 0 -42 32 -80 70 -38 39 -74 70 -81 70 -7 0 -29
18 -50 40 -21 22 -45 40 -53 40 -8 0 -21 9 -29 20 -8 11 -17 17 -20 13 -4 -3
-7 -1 -7 6 0 19 -23 38 -39 33 -8 -3 -11 0 -7 7 11 16 -18 41 -48 41 -14 0
-26 5 -26 10 0 6 -7 10 -16 10 -17 0 -32 14 -50 45 -6 11 -17 20 -25 20 -8 0
-20 12 -27 28 -7 15 -20 27 -28 27 -7 0 -14 5 -14 10 0 6 -5 10 -11 10 -5 0
-7 -4 -4 -10 3 -5 1 -10 -5 -10 -7 0 -14 9 -17 20 -5 17 -8 18 -21 8 -12 -10
-14 -10 -8 0 5 8 1 12 -10 12 -10 0 -15 3 -11 6 9 9 -19 34 -37 34 -9 0 -16 5
-16 10 0 6 -16 10 -35 8 -25 -1 -39 4 -54 21 -17 19 -27 23 -56 18 -24 -4 -33
-2 -29 5 5 7 0 9 -14 6 -25 -7 -114 17 -92 24 8 3 6 4 -6 2 -11 -2 -63 3 -115
12 -108 18 -285 12 -382 -13 -31 -8 -66 -15 -77 -16 -11 -1 -20 -5 -20 -9 0
-4 -9 -8 -20 -8 -11 0 -20 -4 -20 -10 0 -5 -22 -10 -50 -10 -47 0 -65 -11 -37
-24 6 -3 2 -3 -10 0 -13 3 -23 1 -23 -5 0 -6 -9 -11 -20 -11 -11 0 -20 -4 -20
-10 0 -5 -16 -10 -36 -10 -28 0 -43 -8 -74 -40 -21 -22 -46 -40 -54 -40 -9 0
-16 -4 -16 -10 0 -5 -18 -10 -40 -10 -22 0 -40 -4 -40 -10 0 -5 -18 -10 -40
-10 -33 0 -40 -3 -40 -19 0 -11 -5 -21 -11 -23 -6 -2 -9 -17 -7 -33 l3 -29 20
42 c11 23 27 44 35 46 8 2 49 12 90 21 41 10 89 25 105 33 17 9 36 15 43 13 7
-1 75 16 150 38 205 60 294 79 431 89 182 15 345 -10 500 -75 72 -30 246 -131
327 -191 158 -115 156 -113 134 -127 -5 -3 -7 0 -4 8 6 15 -23 29 -66 31 -17
1 -24 6 -22 16 2 8 0 11 -4 7 -11 -10 -14 -38 -4 -32 4 2 15 -4 25 -15 30 -33
1 -23 -72 25 -96 64 -266 149 -354 179 -138 46 -260 59 -473 53 -218 -7 -296
-20 -541 -93 -205 -60 -294 -84 -322 -84 -19 0 -23 -6 -23 -30 0 -16 -4 -30
-10 -30 -5 0 -10 -9 -10 -20 0 -11 -4 -20 -10 -20 -5 0 -10 -13 -10 -30 0 -16
-4 -30 -10 -30 -5 0 -10 -13 -10 -28 0 -16 -8 -34 -20 -42 -14 -10 -20 -26
-20 -50 0 -24 -6 -40 -20 -50 -11 -8 -20 -22 -20 -32 0 -10 -4 -18 -10 -18 -5
0 -10 -13 -10 -28 0 -16 -8 -34 -20 -42 -11 -8 -20 -22 -20 -32 0 -10 -4 -18
-10 -18 -5 0 -10 -22 -10 -50 0 -27 -4 -50 -10 -50 -5 0 -10 -9 -10 -20 0 -11
-4 -20 -10 -20 -6 0 -10 -37 -10 -90 0 -53 4 -90 10 -90 6 0 10 -53 10 -140 0
-87 -4 -140 -10 -140 -5 0 -10 -22 -10 -48 0 -36 5 -51 20 -62 12 -8 20 -26
20 -42 0 -15 5 -28 10 -28 6 0 10 -7 10 -16 0 -9 14 -29 30 -44 17 -15 30 -34
30 -42 0 -7 9 -20 20 -28 12 -8 20 -26 20 -42 0 -15 5 -28 10 -28 6 0 10 -9
10 -20 0 -12 7 -20 16 -20 23 0 44 -25 44 -54 0 -14 5 -26 10 -26 6 0 10 -8
10 -18 0 -10 9 -24 20 -32 11 -8 20 -22 20 -32 0 -10 5 -18 10 -18 6 0 10 -7
10 -16 0 -9 14 -29 30 -44 17 -15 30 -33 30 -40 0 -6 18 -29 40 -50 22 -21 40
-43 40 -49 0 -19 189 -201 203 -196 7 3 24 -6 37 -20 13 -14 19 -25 13 -25 -6
0 -16 7 -23 15 -7 8 -17 15 -22 15 -5 0 2 -11 16 -25 14 -14 30 -25 36 -25 17
0 40 -26 40 -44 0 -9 5 -16 10 -16 6 0 10 -7 10 -16 0 -18 23 -44 40 -44 16 0
60 -47 60 -65 0 -8 7 -15 16 -15 8 0 33 -18 54 -40 21 -22 48 -40 60 -40 12 0
41 -21 70 -50 27 -27 54 -50 60 -50 6 0 51 -40 100 -90 49 -49 96 -90 105 -90
8 0 15 -4 15 -10 0 -5 12 -10 26 -10 16 0 37 -12 54 -30 15 -16 33 -30 40 -30
6 0 29 -18 50 -40 21 -22 45 -40 52 -40 7 0 20 -9 28 -20 8 -11 22 -20 32 -20
10 0 18 -4 18 -10 0 -5 7 -10 16 -10 9 0 29 -13 44 -30 15 -16 37 -30 49 -30
17 0 13 6 -22 38 -23 21 -69 55 -102 74 -33 20 -71 48 -85 63 l-25 26 45 -19
c25 -10 62 -22 83 -25 27 -4 60 -24 112 -69 41 -34 75 -68 75 -75 0 -7 17 -29
37 -49 22 -23 32 -39 25 -42 -25 -8 -12 -32 18 -32 34 0 37 -7 12 -27 -12 -10
-14 -16 -4 -19 6 -3 12 -10 12 -14 0 -13 -91 -6 -118 9 -18 10 -26 10 -38 0
-8 -6 -17 -9 -21 -6 -9 10 39 46 62 47 11 0 27 5 35 10 11 7 1 10 -35 10 -39
0 -54 -5 -65 -20 -10 -14 -26 -20 -52 -20 -21 0 -38 -4 -38 -10 0 -5 -13 -10
-30 -10 -16 0 -30 -4 -30 -10 0 -5 -12 -10 -26 -10 -14 0 -32 -6 -40 -14 -34
-35 -8 -34 63 0 55 27 151 46 140 27 -4 -6 -38 -26 -77 -44 -40 -20 -70 -40
-70 -49 0 -11 -2 -12 -8 -3 -5 7 -13 9 -21 4 -11 -7 -9 -11 8 -20 26 -15 28
-41 2 -41 -11 0 -23 -4 -26 -10 -3 -5 -15 -10 -25 -10 -10 0 -21 -6 -23 -12
-3 -8 -6 -6 -6 5 -1 20 -19 22 -46 3 -11 -7 -33 -16 -49 -20 -16 -4 -48 -16
-70 -27 -22 -10 -46 -19 -54 -19 -8 0 -57 -42 -109 -94 -78 -79 -94 -101 -97
-131 -2 -19 -9 -42 -16 -50 -7 -9 -14 -25 -16 -38 -4 -28 -15 -69 -48 -177
-14 -47 -26 -93 -26 -102 0 -25 -19 -32 -39 -14 -10 9 -21 13 -25 9 -4 -4 -4
0 -1 9 4 9 0 30 -8 45 -18 33 -31 65 -29 74 1 3 -10 11 -23 17 -28 13 -34 -2
-7 -17 9 -6 12 -11 5 -11 -7 0 -10 -7 -7 -15 4 -10 0 -15 -15 -15 -11 0 -30
-13 -43 -30 -25 -35 -74 -42 -85 -12 -3 9 -19 29 -35 45 -24 22 -33 25 -49 17
-10 -6 -19 -7 -19 -3 0 15 -80 9 -90 -7 -12 -18 -13 -40 -2 -25 4 6 22 8 42 4
29 -5 31 -7 10 -9 -14 -1 -27 -2 -30 -2 -3 0 -5 -12 -5 -28 0 -17 4 -26 12
-23 12 5 36 -30 28 -41 -3 -3 0 -2 7 3 14 13 48 -28 48 -58 0 -19 10 -26 32
-22 10 1 58 -70 58 -86 0 -7 3 -13 8 -13 4 0 6 36 5 80 -1 67 1 79 12 70 8 -6
11 -18 8 -26 -3 -9 0 -14 8 -12 10 2 13 -6 11 -31 -1 -18 3 -39 9 -47 13 -15
4 -34 -17 -34 -16 0 -19 -16 -4 -25 6 -3 10 -11 10 -17 0 -6 -8 -4 -18 5 -10
10 -22 14 -25 11 -4 -4 -13 -1 -22 6 -13 11 -15 9 -15 -14 0 -31 -33 -48 -93
-48 -20 1 -35 -3 -32 -8 3 -4 -3 -7 -12 -5 -10 1 -24 -2 -31 -8 -15 -12 -16
-47 -1 -47 7 0 8 -11 4 -30 -4 -19 -1 -37 9 -51 8 -12 12 -27 10 -34 -3 -6 2
-18 10 -25 9 -7 13 -16 10 -21 -3 -5 5 -23 16 -40 12 -16 19 -33 16 -37 -4 -3
-11 0 -16 8 -8 13 -10 12 -10 -2 0 -10 5 -18 11 -18 6 0 8 -9 4 -20 -5 -15 -3
-18 9 -14 9 3 16 1 16 -6 0 -6 -4 -9 -9 -5 -6 3 -8 -11 -5 -35 4 -31 2 -38 -9
-34 -10 3 -16 -5 -20 -25 -4 -17 -12 -31 -18 -31 -6 0 -9 7 -5 15 4 11 -1 15
-19 15 -21 0 -25 5 -25 30 0 32 9 37 28 18 9 -9 12 -9 12 0 0 7 -4 12 -10 12
-5 0 -10 9 -10 19 0 10 -6 21 -14 24 -7 3 -16 20 -19 39 -4 26 0 37 19 54 l24
21 -151 153 c-120 122 -148 155 -135 162 8 5 13 14 11 21 -6 15 14 41 40 51
13 5 15 10 8 13 -7 3 -13 9 -13 14 0 6 4 8 9 5 5 -3 11 13 14 37 6 56 13 82
32 119 8 17 15 35 15 41 0 16 34 82 46 89 7 5 10 17 7 28 -4 14 0 20 11 20 11
0 16 9 16 26 0 14 4 23 10 19 5 -3 10 -1 10 4 0 6 3 10 7 10 32 -5 43 2 37 25
-5 23 -3 24 25 21 22 -3 31 0 31 10 0 8 -6 12 -14 9 -8 -3 -17 -1 -21 5 -3 6
0 9 7 6 8 -3 22 1 33 10 20 14 20 15 -3 21 -26 7 -28 26 -6 48 22 22 5 20 -35
-5 l-33 -20 21 29 c67 95 281 230 441 278 l75 23 -47 0 c-27 1 -48 -3 -48 -9
0 -5 -13 -10 -30 -10 -16 0 -30 -4 -30 -10 0 -5 -13 -10 -30 -10 -16 0 -30 -4
-30 -10 0 -5 -8 -10 -18 -10 -10 0 -24 -9 -32 -20 -8 -11 -26 -20 -40 -20 -14
0 -32 -9 -40 -20 -8 -11 -20 -20 -27 -20 -19 0 -223 -207 -223 -225 0 -8 -4
-15 -10 -15 -5 0 -10 -9 -10 -20 0 -11 -4 -20 -10 -20 -5 0 -10 -22 -10 -50 0
-27 -4 -50 -10 -50 -5 0 -10 -13 -10 -30 0 -16 -4 -30 -10 -30 -5 0 -10 -13
-10 -30 0 -16 -4 -30 -10 -30 -5 0 -10 -13 -10 -28 0 -16 -8 -34 -20 -42 -15
-11 -20 -26 -20 -60 0 -34 -5 -49 -20 -60 -11 -8 -20 -26 -20 -40 0 -14 -9
-32 -20 -40 -18 -13 -20 -26 -20 -152 0 -85 -4 -138 -10 -138 -5 0 -10 -22
-10 -50 0 -27 -4 -50 -10 -50 -5 0 -10 -22 -10 -50 0 -27 -4 -50 -10 -50 -5 0
-10 -22 -10 -50 0 -27 -4 -50 -10 -50 -6 0 -10 -27 -10 -60 0 -33 -4 -60 -10
-60 -5 0 -10 -18 -10 -40 0 -22 -4 -40 -10 -40 -6 0 -10 -43 -10 -110 0 -67
-4 -110 -10 -110 -6 0 -10 -37 -10 -90 0 -53 -4 -90 -10 -90 -6 0 -10 -40 -10
-100 0 -60 -4 -100 -10 -100 -6 0 -10 -40 -10 -100 0 -60 -4 -100 -10 -100 -6
0 -10 -43 -10 -110 0 -67 -4 -110 -10 -110 -6 0 -10 -37 -10 -90 0 -53 -4 -90
-10 -90 -5 0 -10 -13 -10 -30 0 -16 -4 -30 -10 -30 -5 0 -10 -18 -10 -40 0
-22 -4 -40 -10 -40 -5 0 -10 -13 -10 -28 0 -16 -8 -34 -20 -42 -14 -10 -20
-26 -20 -52 0 -21 -4 -38 -10 -38 -5 0 -10 -13 -10 -30 0 -16 -4 -30 -10 -30
-5 0 -10 -13 -10 -30 0 -16 -4 -30 -10 -30 -5 0 -10 -9 -10 -20 0 -11 -4 -20
-10 -20 -5 0 -10 -9 -10 -20 0 -11 -4 -20 -10 -20 -5 0 -10 -13 -10 -30 0 -16
-4 -30 -10 -30 -5 0 -10 -9 -10 -20 0 -11 -4 -20 -10 -20 -5 0 -10 -13 -10
-30 0 -16 -4 -30 -10 -30 -5 0 -10 -13 -10 -30 0 -16 -4 -30 -10 -30 -6 0 -10
-50 -10 -130 0 -80 -4 -130 -10 -130 -5 0 -10 -13 -10 -30 0 -16 -4 -30 -10
-30 -5 0 -10 -8 -10 -18 0 -10 -9 -24 -20 -32 -12 -8 -20 -26 -20 -42 0 -21
-5 -28 -20 -28 -13 0 -20 -7 -20 -20 0 -11 -4 -20 -10 -20 -6 0 -10 -27 -10
-60 0 -33 4 -60 10 -60 6 0 10 -21 10 -46 0 -40 -5 -50 -40 -84 -22 -21 -40
-46 -40 -54 0 -9 -4 -16 -10 -16 -5 0 -10 -7 -10 -16 0 -8 -5 -25 -11 -36 -14
-26 -12 -221 2 -226 5 -2 9 -11 9 -21 0 -9 9 -23 20 -31 11 -8 20 -26 20 -40
0 -14 9 -32 20 -40 11 -8 20 -22 20 -32 0 -10 5 -18 10 -18 6 0 10 -13 10 -30
0 -16 5 -30 10 -30 6 0 10 -18 10 -40 0 -22 5 -40 10 -40 6 0 10 -9 10 -20 0
-11 5 -20 10 -20 6 0 10 -13 10 -30 0 -16 5 -30 10 -30 6 0 10 -25 10 -55 l0
-55 145 -145 145 -145 85 0 c50 0 85 -4 85 -10 0 -5 9 -10 20 -10 11 0 20 -4
20 -10 0 -6 49 -10 128 -10 116 0 129 -2 142 -20 12 -17 26 -20 97 -20 l83 0
55 -55 c50 -50 55 -58 55 -100 0 -25 -4 -45 -10 -45 -5 0 -10 -22 -10 -50 0
-27 -4 -50 -10 -50 -5 0 -10 -18 -10 -40 0 -22 -4 -40 -10 -40 -6 0 -10 -27
-10 -60 0 -33 -4 -60 -10 -60 -6 0 -10 -33 -10 -80 0 -47 -4 -80 -10 -80 -6 0
-10 -97 -10 -270 0 -173 4 -270 10 -270 6 0 10 -37 10 -90 0 -53 4 -90 10 -90
6 0 10 -22 10 -50 0 -27 5 -50 10 -50 6 0 10 -9 10 -20 0 -11 5 -20 10 -20 6
0 10 -18 10 -40 0 -22 5 -40 10 -40 6 0 10 -18 10 -40 0 -22 5 -40 10 -40 6 0
10 -13 10 -30 0 -16 5 -30 10 -30 6 0 10 -13 10 -30 0 -16 5 -30 10 -30 6 0
10 -9 10 -20 0 -11 5 -20 10 -20 6 0 10 -9 10 -20 0 -11 5 -20 10 -20 6 0 10
-13 10 -30 0 -16 5 -30 10 -30 6 0 10 -8 10 -18 0 -10 9 -24 20 -32 12 -8 20
-26 20 -42 0 -15 5 -28 10 -28 6 0 10 -9 10 -20 0 -11 5 -20 10 -20 6 0 10
-13 10 -30 0 -16 5 -30 10 -30 6 0 10 -8 10 -18 0 -10 9 -24 20 -32 11 -8 20
-20 20 -27 0 -10 73 -13 355 -13 315 0 355 2 355 16 0 8 5 12 10 9 6 -4 8 -11
5 -16 -4 -5 1285 -9 3359 -9 2439 0 3366 3 3366 11 0 6 -13 24 -30 39 -16 15
-30 34 -30 42 0 7 -9 20 -20 28 -12 8 -20 26 -20 42 0 15 -4 28 -10 28 -5 0
-10 9 -10 20 0 11 -4 20 -10 20 -5 0 -10 9 -10 20 0 11 -4 20 -10 20 -5 0 -10
9 -10 20 0 11 -4 20 -10 20 -5 0 -10 9 -10 20 0 11 -4 20 -10 20 -5 0 -10 9
-10 20 0 11 -4 20 -10 20 -5 0 -10 13 -10 28 0 16 -8 34 -20 42 -11 8 -20 22
-20 32 0 10 -4 18 -10 18 -5 0 -10 14 -10 30 0 17 -4 30 -10 30 -5 0 -10 9
-10 20 0 11 -4 20 -10 20 -5 0 -10 9 -10 20 0 11 -4 20 -10 20 -5 0 -10 8 -10
18 0 10 -9 24 -20 32 -14 10 -20 26 -20 52 0 21 -4 38 -10 38 -5 0 -10 9 -10
20 0 11 -4 20 -10 20 -5 0 -10 9 -10 20 0 11 -4 20 -10 20 -5 0 -10 14 -10 30
0 17 -4 30 -10 30 -5 0 -10 9 -10 20 0 11 -4 20 -10 20 -5 0 -10 9 -10 20 0
11 -4 20 -10 20 -5 0 -10 9 -10 20 0 11 -4 20 -10 20 -5 0 -10 9 -10 20 0 11
-4 20 -10 20 -5 0 -10 8 -10 19 0 10 -7 24 -15 31 -8 7 -15 18 -15 24 0 7 -13
25 -30 41 -16 16 -30 34 -30 40 0 12 -91 105 -104 105 -4 0 -14 6 -22 14 -11
11 -14 46 -14 148 0 122 -2 135 -20 148 -11 8 -20 20 -20 28 0 7 -31 44 -70
82 -38 38 -70 74 -70 81 0 6 -13 24 -30 39 -16 15 -30 33 -30 39 0 14 -226
241 -240 241 -6 0 -53 43 -105 95 l-95 95 45 45 c24 25 51 45 60 45 8 0 15 5
15 10 0 6 14 10 30 10 l30 0 0 70 c0 40 -4 70 -10 70 -5 0 -10 14 -10 30 0 17
-4 30 -10 30 -5 0 -10 14 -10 30 0 28 -2 30 -40 30 l-40 0 0 46 c0 38 -5 51
-30 74 -17 15 -30 35 -30 44 0 9 -4 16 -10 16 -5 0 -10 9 -10 20 0 11 -4 20
-10 20 -5 0 -10 9 -10 20 0 11 -4 20 -10 20 -5 0 -10 14 -10 30 0 17 -4 30
-10 30 -5 0 -10 9 -10 20 0 11 -4 20 -10 20 -5 0 -10 9 -10 20 0 11 -4 20 -10
20 -5 0 -10 9 -10 20 0 11 -4 20 -10 20 -5 0 -10 8 -10 18 0 10 -9 24 -20 32
-11 8 -20 22 -20 32 0 10 -4 18 -10 18 -5 0 -10 8 -10 18 0 10 -9 24 -20 32
-13 9 -20 26 -20 48 0 33 -18 62 -40 62 -16 0 -80 67 -80 85 0 8 -4 15 -10 15
-5 0 -10 14 -10 30 0 17 -4 30 -10 30 -6 0 -10 30 -10 70 0 40 4 70 10 70 6 0
10 17 10 38 -1 36 -3 39 -100 100 -55 35 -100 70 -100 78 0 12 4 12 25 -2 23
-15 25 -15 25 0 0 12 9 15 41 12 38 -3 46 0 85 40 39 39 44 49 45 91 0 27 3
42 6 36 3 -10 44 -13 154 -13 93 0 149 -4 149 -10 0 -6 39 -10 98 -10 86 0 99
2 112 20 8 12 26 20 42 20 15 0 28 5 28 10 0 6 9 10 20 10 11 0 20 5 20 10 0
6 18 10 40 10 22 0 40 5 40 10 0 6 35 10 85 10 l86 0 99 100 c74 74 106 100
125 100 14 0 25 5 25 10 0 6 23 10 50 10 28 0 50 5 50 10 0 6 16 10 35 10 27
0 44 8 70 35 19 19 35 41 35 50 0 8 5 15 10 15 6 0 10 18 10 40 0 22 5 40 10
40 6 0 10 50 10 130 0 80 4 130 10 130 6 0 10 63 10 170 0 107 -4 170 -10 170
-5 0 -10 18 -10 40 0 22 -4 40 -10 40 -5 0 -10 18 -10 40 0 22 -4 40 -10 40
-5 0 -10 9 -10 20 0 11 -4 20 -10 20 -5 0 -10 9 -10 20 0 11 -4 20 -10 20 -5
0 -10 8 -10 18 0 10 -9 24 -20 32 -11 8 -20 22 -20 32 0 10 -4 18 -10 18 -5 0
-10 7 -10 16 0 9 -13 29 -30 44 -16 15 -30 33 -30 40 0 7 -13 25 -30 40 -16
15 -30 34 -30 42 0 7 -9 20 -20 28 -11 8 -20 21 -20 30 0 9 -9 22 -20 30 -11
8 -20 21 -20 28 0 8 -13 27 -30 42 -16 15 -30 33 -30 40 0 18 -27 40 -49 40
-18 0 -21 6 -21 46 0 38 -5 51 -30 74 -16 15 -30 34 -30 42 0 7 -9 20 -20 28
-11 8 -20 21 -20 30 0 9 -9 22 -20 30 -11 8 -20 21 -20 30 0 9 -9 22 -20 30
-11 8 -20 21 -20 30 0 9 -9 22 -20 30 -11 8 -20 21 -20 30 0 9 -9 22 -20 30
-11 8 -20 22 -20 32 0 10 -7 18 -15 18 -8 0 -15 -1 -15 -3 0 -2 20 -40 44 -85
44 -82 50 -110 10 -49 -57 86 -213 389 -228 443 -4 12 -15 29 -26 39 -11 10
-20 25 -20 34 0 9 -23 46 -50 81 -137 176 -162 212 -210 295 -29 50 -75 135
-102 189 -89 177 -269 473 -341 560 -65 79 -157 265 -157 318 0 31 3 39 14 35
10 -4 26 12 47 46 18 29 57 90 86 137 47 74 238 380 290 465 47 76 190 309
207 338 42 69 140 213 170 249 114 139 284 191 508 154 54 -9 104 -16 112 -16
9 0 32 18 52 40 21 22 43 40 49 40 7 0 30 12 51 26 l38 26 19 -23 c24 -29 19
-84 -13 -156 -20 -44 -22 -56 -12 -78 17 -37 57 -33 122 13 69 48 112 117 118
189 l4 53 -55 0 c-70 0 -83 18 -92 126 l-7 79 37 45 c46 55 53 60 89 60 16 0
45 12 64 27 33 25 35 25 48 8 21 -28 17 -44 -16 -63 -17 -9 -33 -25 -36 -34
-3 -10 -10 -18 -15 -18 -5 0 -9 -7 -9 -15 0 -9 22 -26 53 -40 85 -40 215 -31
273 19 40 33 26 59 -45 86 -33 12 -68 32 -80 44 -30 32 -51 100 -51 167 0 57
0 58 51 100 39 34 59 43 89 44 28 1 51 10 79 33 22 18 47 32 55 32 30 0 54
-69 58 -170 5 -114 18 -125 77 -62 46 48 71 116 71 193 0 69 -17 90 -56 69
-33 -18 -55 3 -64 64 -7 46 -7 46 44 89 99 83 374 282 501 362 33 21 100 65
149 97 50 33 119 75 155 93 95 48 111 64 111 115 0 34 -6 47 -30 70 -16 15
-30 33 -30 39 0 17 -168 181 -185 181 -8 0 -15 5 -15 10 0 6 -9 10 -20 10 -11
0 -20 5 -20 10 0 6 -9 10 -20 10 -11 0 -20 5 -20 10 0 6 -9 10 -20 10 -11 0
-20 5 -20 10 0 6 -9 10 -20 10 -11 0 -20 5 -20 10 0 6 -13 10 -30 10 -16 0
-30 5 -30 10 0 6 -18 10 -40 10 -22 0 -40 5 -40 10 0 6 -13 10 -30 10 -16 0
-30 5 -30 10 0 6 -24 10 -52 9 -52 0 -52 -1 52 -29z m-7503 -596 c42 -8 105
-27 140 -41 70 -28 215 -116 259 -157 16 -14 31 -26 34 -26 3 0 6 -8 7 -17 0
-10 4 -33 8 -52 6 -25 5 -32 -4 -27 -8 6 -10 1 -5 -18 4 -19 2 -28 -10 -32 -9
-3 -16 -14 -16 -23 0 -9 -5 -22 -12 -29 -9 -9 -9 -12 0 -12 7 0 12 -7 12 -15
0 -9 -6 -12 -15 -9 -10 4 -15 0 -15 -11 0 -11 -5 -15 -15 -11 -8 3 -14 1 -12
-3 3 -11 -55 -66 -65 -63 -8 2 -12 -13 -9 -35 2 -16 -16 -17 -21 -1 -3 7 -11
4 -24 -10 -26 -27 -64 -41 -97 -35 -15 3 -27 1 -27 -5 0 -6 -8 -9 -17 -8 -9 2
-38 -4 -63 -12 -25 -8 -55 -15 -66 -17 -12 -2 -30 -8 -41 -14 -11 -5 -23 -7
-27 -3 -4 3 -10 2 -14 -3 -10 -14 -49 -35 -66 -35 -8 0 -20 -8 -25 -17 -6 -10
-11 -14 -11 -10 0 5 -10 1 -22 -7 -12 -9 -30 -16 -40 -16 -10 0 -18 -4 -18
-10 0 -6 -3 -9 -7 -8 -5 1 -24 -3 -43 -9 -19 -6 -68 -14 -108 -18 -60 -5 -73
-4 -78 9 -3 9 -10 14 -14 11 -4 -3 -13 2 -20 11 -11 12 -15 12 -21 2 -5 -7 -9
-8 -9 -3 0 12 -40 13 -58 1 -7 -4 -16 -4 -22 -1 -5 3 -10 2 -10 -3 0 -5 -7 -9
-15 -9 -8 0 -15 3 -15 7 0 15 -81 -7 -106 -29 -28 -24 -100 -59 -90 -43 8 14
-34 23 -55 11 -26 -13 -42 -11 -36 6 5 12 -4 14 -48 10 -30 -2 -57 1 -61 6 -3
5 -10 7 -15 4 -5 -4 -9 -1 -9 6 0 6 -8 18 -17 26 -10 8 -12 12 -6 8 9 -4 11
-1 7 9 -3 9 -11 13 -17 9 -6 -4 -8 0 -4 10 8 20 -4 22 -22 5 -10 -11 -11 -9
-5 6 5 13 4 17 -4 12 -17 -11 -36 62 -19 75 5 3 9 12 10 20 4 25 75 134 112
172 38 39 51 46 42 23 -11 -28 36 -27 67 2 39 37 86 111 86 137 0 12 9 32 20
45 44 51 23 64 -111 64 l-76 1 17 29 c31 57 107 57 163 1 52 -52 73 -53 136
-5 62 47 198 123 262 146 121 43 357 57 496 28z m442 -1127 c18 -15 29 -27 25
-27 -11 0 87 -87 130 -115 30 -20 35 -45 8 -45 -9 0 -48 9 -87 20 -105 30
-179 35 -259 16 -100 -24 -194 -63 -253 -107 -29 -22 -55 -39 -58 -39 -27 0
37 135 93 195 65 71 121 103 208 118 115 20 155 17 193 -16z m4001 -1345 c0
-4 -29 -48 -65 -96 -36 -49 -62 -92 -57 -95 4 -3 52 -71 106 -151 55 -80 107
-156 117 -169 22 -27 25 -51 7 -51 -27 0 -132 152 -223 323 -10 20 -20 35 -21
34 -1 -1 -34 -60 -74 -132 -39 -71 -77 -134 -83 -140 -19 -16 -67 -90 -67
-103 0 -6 52 -89 115 -183 106 -157 128 -199 107 -199 -19 0 -84 82 -133 169
-80 139 -101 176 -105 180 -2 2 -11 -2 -21 -10 -15 -12 -16 -12 -10 3 3 9 11
35 17 57 6 22 19 68 30 102 11 34 20 78 20 98 0 20 5 42 11 48 6 6 12 19 13
29 2 10 8 20 14 22 8 2 10 -3 5 -14 -4 -12 -3 -15 5 -10 16 9 15 49 0 65 -11
11 -9 12 10 6 13 -4 22 -2 22 4 0 6 -4 11 -10 11 -5 0 -10 9 -10 20 0 11 7 20
15 20 8 0 15 4 15 9 0 5 10 11 22 13 20 3 22 8 19 47 -3 52 18 54 33 3 13 -40
36 -50 56 -22 8 11 35 43 59 70 41 47 61 61 61 42z m-2328 -812 c-4 -12 -2
-12 14 2 19 16 20 16 21 -3 1 -10 -2 -17 -8 -14 -5 3 -17 1 -26 -4 -10 -6 -14
-11 -9 -11 5 0 4 -6 -1 -12 -15 -19 -27 -192 -14 -183 6 3 11 -1 11 -9 0 -8 5
-18 12 -22 6 -4 8 -3 4 4 -4 7 6 10 28 9 32 -2 42 -14 23 -28 -5 -3 -9 -14
-11 -23 -1 -9 -5 -16 -9 -16 -4 0 -11 0 -17 0 -5 0 -10 8 -10 18 0 10 -7 19
-15 19 -10 0 -13 -6 -9 -19 3 -12 1 -18 -7 -16 -7 2 -15 -6 -17 -17 -2 -11 -9
-31 -15 -45 -18 -45 -21 -83 -21 -295 -1 -264 15 -631 44 -990 5 -66 10 -136
10 -157 0 -31 3 -35 20 -31 33 9 64 -5 113 -48 42 -36 65 -71 35 -53 -28 18
-151 25 -190 12 -66 -23 -71 -74 -18 -186 16 -35 30 -73 30 -83 0 -28 37 -134
71 -204 24 -50 28 -65 20 -92 -5 -17 -7 -34 -4 -37 3 -3 -2 -8 -11 -12 -9 -3
-14 -10 -11 -14 3 -4 -2 -13 -10 -20 -8 -7 -15 -20 -16 -29 0 -10 -2 -12 -6
-3 -2 6 -9 10 -14 6 -5 -3 -10 5 -10 18 -1 13 -5 -2 -9 -32 -23 -171 -30 -233
-28 -236 2 -1 39 52 83 118 44 66 81 115 83 109 2 -7 -4 -23 -13 -37 -16 -25
-14 -74 3 -74 4 0 25 21 46 46 23 28 58 55 85 66 25 11 55 28 66 38 11 10 41
21 68 24 26 4 47 11 47 16 0 5 -16 41 -36 80 -19 39 -33 77 -30 83 3 7 20 35
36 62 16 28 35 59 41 71 6 11 20 26 32 33 21 13 21 13 5 -6 -10 -11 -18 -24
-18 -28 0 -5 -18 -35 -41 -67 l-40 -58 17 -30 c14 -22 21 -27 31 -18 9 7 13 7
13 0 0 -6 -4 -14 -10 -17 -6 -4 0 -25 15 -54 l24 -48 102 -8 c56 -4 108 -9
116 -12 22 -9 15 14 -30 84 -23 37 -67 116 -97 176 -30 59 -59 107 -66 107 -7
0 -10 8 -8 18 3 9 -1 26 -9 36 -14 19 -15 19 -28 -5 -37 -67 -104 -159 -107
-149 -3 7 5 24 15 38 11 15 28 42 37 60 19 37 22 33 -67 101 -61 47 -121 114
-110 125 12 11 21 6 27 -16 6 -24 95 -88 122 -88 9 0 25 -11 36 -25 11 -14 25
-25 31 -25 16 0 96 131 103 170 4 18 10 27 14 20 4 -7 28 20 60 69 53 80 77
102 45 41 -15 -30 -13 -70 5 -70 5 0 18 12 29 28 27 35 27 9 0 -34 l-21 -34
21 -29 c12 -16 21 -32 21 -36 0 -7 91 -165 136 -237 24 -38 32 -78 15 -78 -12
0 -86 121 -154 251 l-56 107 -26 -39 c-14 -22 -28 -53 -31 -68 -4 -16 -11 -28
-18 -25 -13 5 -46 -49 -46 -77 0 -11 9 -27 20 -36 11 -10 20 -26 20 -35 0 -10
20 -51 43 -91 87 -145 110 -190 109 -218 -1 -25 6 -33 47 -53 26 -14 53 -32
60 -40 17 -21 2 -21 -133 -2 -55 8 -117 17 -136 19 -19 3 -49 -1 -67 -8 -17
-7 -34 -11 -36 -8 -3 2 -13 -9 -23 -26 -19 -32 -100 -71 -148 -71 -13 0 -29
-6 -35 -14 -7 -8 -23 -17 -36 -20 -14 -4 -25 -10 -25 -15 0 -5 -23 -17 -50
-26 -40 -13 -57 -26 -76 -56 -37 -59 -47 -86 -40 -104 5 -14 8 -14 36 0 16 8
30 19 30 24 0 4 12 6 26 3 18 -3 30 -15 38 -33 8 -24 22 -33 76 -50 82 -27
160 -68 160 -85 0 -12 -41 -41 -48 -35 -1 2 -29 0 -62 -4 -55 -6 -62 -5 -79
16 -18 23 -24 24 -136 21 l-117 -2 6 28 c4 15 16 39 26 54 11 15 20 32 20 38
0 19 -15 10 -35 -23 -63 -103 -65 -112 -35 -145 11 -12 20 -27 20 -34 0 -8 6
-22 14 -33 7 -11 16 -38 20 -60 4 -22 16 -57 26 -77 23 -45 9 -51 -35 -16 -23
18 -30 19 -48 9 -19 -12 -20 -11 -13 21 19 84 18 103 -6 158 l-24 54 -37 -61
c-20 -33 -37 -69 -37 -79 1 -24 26 -58 38 -50 5 3 7 -5 5 -18 -5 -23 6 -48 96
-218 28 -53 51 -104 51 -113 0 -43 -33 6 -121 183 l-97 191 -37 -56 c-37 -56
-41 -85 -12 -115 6 -7 18 -31 26 -53 7 -22 45 -98 83 -169 42 -78 66 -135 63
-145 -6 -14 -8 -13 -22 4 -17 23 -65 116 -140 270 -29 61 -57 108 -61 106 -10
-7 -62 -90 -62 -101 0 -22 25 -60 36 -56 7 3 10 -2 7 -13 -5 -18 14 -59 107
-239 40 -77 51 -105 42 -114 -6 -6 -14 -9 -17 -6 -3 3 -41 76 -83 162 -43 86
-82 153 -87 149 -4 -5 -5 -3 -2 3 6 10 -18 84 -27 84 -1 0 -17 -23 -34 -51
-30 -48 -31 -52 -17 -80 15 -28 35 -39 35 -19 0 6 10 21 22 33 l22 22 -16 -25
c-8 -14 -20 -34 -27 -45 -11 -17 -2 -40 68 -176 79 -152 94 -195 69 -187 -13
4 -164 293 -190 363 l-15 40 -30 -48 c-31 -48 -33 -76 -7 -98 8 -6 14 -18 14
-25 0 -8 36 -85 80 -173 78 -154 93 -197 68 -189 -12 4 -131 232 -167 319 -8
19 -25 57 -38 86 -12 28 -23 57 -23 62 0 23 -19 9 -43 -31 -24 -41 -24 -50 1
-88 2 -3 17 11 33 30 l30 35 -25 -42 c-14 -24 -26 -47 -26 -52 0 -21 24 -61
36 -61 7 0 10 -8 7 -19 -3 -12 24 -79 71 -173 82 -167 86 -179 70 -185 -11 -3
-137 243 -184 359 l-24 58 -24 -41 c-23 -39 -24 -65 -3 -98 8 -13 12 -13 27 0
16 13 16 12 2 -14 -14 -27 -13 -32 17 -90 17 -34 36 -71 42 -82 19 -34 82
-170 85 -184 2 -8 -3 -16 -9 -18 -12 -4 -108 179 -177 340 -18 41 -32 63 -37
56 -4 -7 2 -32 12 -56 18 -43 18 -69 -2 -57 -5 3 -9 2 -8 -3 3 -19 -2 -33 -12
-33 -5 0 -8 4 -5 9 6 9 -15 71 -25 71 -3 0 -55 -74 -114 -165 -59 -91 -109
-164 -112 -162 -2 2 11 26 29 53 18 27 47 72 63 99 17 27 50 78 73 114 35 53
43 72 39 97 -6 36 7 54 40 54 27 0 27 -1 10 39 l-13 31 -99 -153 c-150 -230
-294 -450 -368 -564 -37 -55 -67 -106 -67 -112 0 -6 12 -11 28 -11 24 0 39 19
136 165 59 91 112 168 118 171 10 7 4 -5 -126 -205 -47 -74 -86 -137 -86 -141
0 -6 44 -30 54 -30 2 0 18 23 36 50 42 66 49 64 11 -3 l-31 -54 55 -12 c53
-12 106 -43 94 -56 -4 -3 -18 0 -32 6 -20 9 -47 9 -117 0 -50 -6 -99 -16 -108
-21 -9 -4 -37 -14 -62 -20 -25 -6 -54 -18 -64 -25 -19 -14 -18 -15 10 -37 16
-13 40 -34 54 -46 21 -20 22 -23 5 -17 -45 17 -66 16 -91 0 -22 -14 -39 -16
-91 -11 -36 4 -76 14 -89 23 -24 15 -105 28 -244 38 -36 3 -81 8 -100 12 -19
3 -39 5 -44 4 -22 -5 -66 12 -66 25 0 9 -4 12 -10 9 -5 -3 -10 -2 -10 2 0 8
-56 33 -72 33 -4 0 -30 -23 -58 -51 l-52 -51 -19 21 c-17 18 -46 27 -65 19 -6
-3 -28 32 -29 47 -1 6 -6 9 -13 8 -7 -2 -12 5 -12 14 0 25 -30 53 -56 53 -13
0 -29 9 -37 20 -8 11 -17 17 -20 14 -9 -9 -3 59 6 74 5 7 3 12 -7 12 -8 0 -17
-6 -19 -12 -3 -7 -6 -4 -6 6 -1 11 -4 16 -8 13 -3 -4 -12 -2 -20 4 -7 6 -13 8
-13 4 0 -4 -7 -2 -15 5 -8 7 -27 10 -42 7 -16 -4 -22 -4 -15 -1 24 11 12 23
-14 14 -19 -7 -31 -6 -46 4 -14 10 -28 12 -49 6 -25 -8 -30 -6 -35 15 -5 21
-10 23 -47 19 -23 -3 -54 -14 -69 -24 -36 -27 -51 -26 -43 3 4 12 11 26 16 32
15 15 10 28 -6 15 -25 -21 -17 2 12 32 32 33 18 36 -37 8 -42 -22 -50 -18 -24
11 15 16 14 17 -10 15 -29 -4 -41 7 -30 26 5 7 9 21 9 32 2 17 1 17 -10 2 -18
-24 -32 -19 -39 15 -5 24 -9 28 -22 21 -9 -5 -25 -7 -35 -5 -10 3 -36 -5 -58
-18 -23 -12 -43 -20 -47 -17 -3 4 4 11 15 18 12 6 21 15 21 20 0 5 -16 1 -36
-11 -40 -22 -59 -18 -28 6 18 14 17 14 -8 5 -19 -6 -28 -6 -28 1 0 6 -6 9 -12
6 -7 -2 -12 -9 -11 -15 1 -5 -7 -8 -18 -5 -12 3 -18 11 -15 19 3 7 1 16 -4 19
-4 3 -10 0 -12 -7 -3 -8 -14 -3 -30 15 -23 25 -27 26 -41 12 -23 -22 -26 -19
-23 21 3 43 -3 47 -44 32 -25 -8 -38 -8 -51 1 -10 6 -26 11 -34 11 -23 0 -18
14 21 65 19 26 30 44 23 39 -8 -5 -11 -2 -6 8 3 9 -2 26 -11 39 -9 13 -16 26
-16 29 2 15 -10 39 -17 34 -5 -3 -9 1 -9 8 0 19 97 55 214 79 109 23 153 21
191 -9 13 -11 56 -29 95 -42 38 -12 70 -26 70 -31 0 -5 10 -9 23 -9 65 0 174
-35 227 -74 70 -51 140 -117 140 -132 0 -16 65 -64 87 -64 22 0 43 -18 43 -37
0 -10 -9 -12 -36 -7 -58 11 -112 10 -125 -3 -9 -9 -2 -14 27 -22 21 -6 41 -7
44 -2 10 15 51 19 83 9 18 -5 42 -11 53 -13 32 -4 55 -19 93 -59 l35 -36 -36
0 c-41 0 -98 -18 -98 -31 0 -12 14 -11 27 2 6 6 28 11 49 11 22 0 44 4 51 10
16 13 68 1 84 -18 17 -20 65 -40 119 -48 45 -7 46 -6 183 95 79 59 137 109
137 118 -1 9 -9 30 -18 47 -9 17 -35 67 -57 111 -22 45 -47 83 -55 86 -13 3
-16 27 -14 158 1 137 3 154 19 164 11 5 30 21 43 33 16 16 33 22 48 19 18 -3
24 0 24 14 0 11 5 19 11 19 5 0 15 14 20 30 12 34 16 35 43 15 11 -8 28 -15
37 -15 12 0 16 -6 12 -18 -2 -10 3 -24 11 -31 9 -8 16 -22 16 -32 0 -11 5 -19
10 -19 13 0 13 -27 1 -32 -5 -2 -4 -16 3 -33 10 -25 13 -26 19 -12 4 11 3 16
-3 12 -6 -3 -10 1 -10 9 0 39 20 8 63 -96 50 -122 57 -129 29 -27 -15 53 -16
68 -6 77 19 17 24 15 24 -10 0 -19 2 -20 10 -8 8 12 10 12 11 -5 0 -11 3 -14
6 -8 5 15 43 -1 56 -23 4 -8 15 -14 23 -14 8 0 13 -4 10 -9 -3 -5 0 -9 7 -8
32 1 47 -4 47 -17 0 -7 6 -19 14 -25 17 -14 3 -30 -84 -101 -30 -25 -68 -58
-84 -73 -34 -33 -113 -95 -195 -151 -31 -21 -82 -60 -114 -87 -32 -27 -63 -49
-68 -49 -6 0 -7 -4 -4 -10 3 -5 0 -10 -7 -10 -11 0 -68 -51 -68 -62 0 -1 52
-1 115 0 84 3 148 -2 242 -18 152 -26 186 -36 233 -66 60 -39 82 -40 105 -2
10 18 93 147 184 285 249 380 315 482 331 516 8 18 23 41 32 52 10 11 41 57
70 102 29 46 111 174 182 285 72 112 172 267 223 346 51 79 100 156 107 171 8
15 22 99 31 187 9 87 21 195 26 239 21 188 11 519 -17 573 -8 15 -14 32 -14
38 0 18 -63 42 -86 33 -43 -16 -90 -103 -129 -239 -7 -25 -20 -62 -29 -84 -9
-21 -16 -47 -16 -57 0 -11 -5 -27 -10 -37 -6 -9 -19 -42 -30 -72 -10 -30 -23
-56 -29 -56 -6 -1 -14 -3 -18 -4 -5 -1 -11 -2 -15 -1 -5 0 -8 -3 -8 -7 0 -21
-28 -6 -38 20 -5 15 -6 28 -1 28 4 0 6 7 3 15 -4 8 -17 15 -29 15 -29 0 -37
11 -19 27 10 10 15 10 23 -5 8 -13 10 -14 11 -2 0 8 3 25 6 38 4 13 2 22 -5
22 -7 0 -10 -4 -7 -9 3 -5 -1 -11 -9 -15 -11 -4 -13 1 -8 25 7 35 -13 79 -36
79 -13 0 -13 -2 -2 -9 9 -6 11 -18 7 -35 -7 -30 -26 -26 -26 5 0 10 -6 18 -12
17 -7 -2 -14 7 -16 20 -2 12 -8 22 -13 22 -6 0 -7 -9 -3 -22 6 -20 5 -21 -10
-9 -21 18 -20 37 4 68 21 27 27 68 11 77 -5 3 -11 -2 -13 -12 -3 -10 -12 -19
-21 -19 -9 0 -14 4 -11 9 3 4 1 8 -5 8 -5 0 -13 -5 -17 -12 -5 -8 -10 -6 -14
8 -8 20 9 56 22 48 4 -3 8 2 8 11 0 9 5 21 10 28 47 55 60 74 60 84 0 6 6 18
13 25 14 15 57 101 57 114 0 5 15 33 34 61 63 96 102 180 110 238 5 37 36 145
55 190 26 62 31 78 31 100 0 14 5 25 10 25 6 0 10 11 10 23 0 13 3 27 6 30 4
4 8 26 11 49 2 24 8 44 13 46 6 2 6 10 1 20 -6 11 -1 47 14 104 12 48 20 90
18 92 -3 3 0 20 6 38 5 18 12 51 15 73 20 165 30 215 51 257 13 26 38 98 55
160 17 62 35 122 40 133 8 20 3 -301 -6 -365 -20 -136 -5 -680 22 -815 13 -66
18 -141 18 -279 1 -185 5 -206 33 -188 10 6 9 45 -3 182 -22 258 -49 837 -49
1045 0 89 14 335 20 344 1 3 6 68 9 143 3 75 8 142 11 150 3 7 18 13 34 13 22
1 27 -3 23 -15z m1758 -172 c13 -24 66 -107 117 -184 86 -131 107 -174 84
-174 -14 0 -86 90 -110 138 -12 24 -38 67 -57 97 -18 30 -34 57 -34 60 0 3
-10 21 -23 40 -18 26 -26 32 -35 23 -9 -9 -12 -9 -12 -1 0 13 27 43 39 43 4 0
18 -19 31 -42z m-204 -232 c-20 -30 -36 -59 -36 -63 0 -12 101 -180 170 -283
55 -82 74 -130 51 -130 -12 0 -72 81 -117 161 -20 35 -45 80 -56 99 -11 19
-32 54 -45 78 l-26 43 -25 -35 c-32 -46 -47 -46 -25 0 14 28 15 39 5 54 -15
24 -16 50 -2 50 6 0 10 -6 10 -14 0 -8 6 -16 14 -19 10 -4 31 18 63 64 55 82
71 78 19 -5z m-140 -201 c-1 -9 -21 -44 -43 -78 -63 -97 -64 -101 -46 -127 9
-12 29 -48 46 -79 16 -31 60 -104 98 -163 72 -115 85 -143 70 -152 -14 -9 -68
69 -161 234 -46 80 -84 147 -86 148 -1 2 -12 -6 -23 -17 -12 -12 -19 -21 -17
-21 3 0 -13 -28 -35 -62 -21 -35 -52 -85 -68 -112 l-30 -49 28 -51 c45 -82 94
-165 154 -260 57 -90 65 -110 48 -120 -9 -6 -95 114 -123 169 -28 58 -81 150
-94 166 -8 8 -14 22 -14 30 0 8 -4 20 -9 27 -5 9 -24 -11 -60 -67 -61 -92 -88
-121 -71 -75 13 33 60 116 70 124 4 3 46 64 93 135 122 185 184 278 199 295 7
8 13 18 13 21 0 8 56 99 61 99 1 0 1 -7 0 -15z m-465 -734 c-9 -15 -8 -26 1
-41 7 -11 16 -20 20 -20 5 0 8 -8 8 -18 0 -10 6 -26 13 -37 8 -11 27 -45 44
-75 17 -30 56 -96 87 -147 54 -87 67 -123 46 -123 -12 0 -78 97 -126 186 -20
38 -48 89 -62 114 -13 25 -34 63 -46 85 -22 40 -21 49 8 93 13 21 19 6 7 -17z
m-157 -319 c4 -3 12 0 17 8 8 11 9 7 6 -15 -6 -33 22 -89 132 -270 34 -55 61
-105 61 -112 0 -35 -24 -14 -72 64 -52 85 -68 114 -120 213 -13 25 -26 47 -29
50 -3 3 -12 23 -19 44 l-13 40 -18 -35 c-23 -43 -68 -98 -69 -83 0 6 23 47 52
90 l52 79 7 -33 c4 -18 10 -36 13 -40z m2758 -264 c4 -11 -117 -90 -260 -170
-67 -38 -87 -26 -40 24 61 65 143 116 228 143 57 17 67 18 72 3z m-2173 -138
c6 0 11 8 11 18 0 14 2 15 9 2 6 -8 8 -17 6 -21 -3 -3 37 -19 88 -34 51 -16
94 -31 97 -34 3 -3 19 -7 35 -9 17 -2 41 -10 54 -19 13 -8 38 -17 55 -19 66
-9 72 -11 84 -18 7 -4 16 -5 21 -1 5 3 12 1 16 -5 3 -5 16 -10 28 -11 21 0 21
-1 2 -8 -11 -5 -22 -5 -25 0 -3 4 -14 6 -25 5 -11 -2 -28 1 -39 6 -10 6 -31
12 -45 14 -14 1 -56 9 -94 17 -80 17 -69 15 -87 20 -68 20 -143 36 -150 32 -4
-3 -10 -2 -12 2 -5 12 -100 43 -130 43 -17 0 -28 5 -28 13 0 14 5 15 65 18 23
1 33 5 29 13 -3 6 1 3 9 -6 8 -10 19 -18 26 -18z m2395 -6 c-27 -12 -80 -35
-119 -49 -38 -15 -83 -33 -100 -40 -62 -27 -129 -45 -138 -36 -11 11 11 47 38
60 82 39 145 62 194 71 31 6 74 14 96 18 22 4 49 6 59 3 15 -3 8 -10 -30 -27z
m-1165 -117 c12 -24 21 -59 21 -79 0 -38 12 -144 36 -314 l16 -112 79 40 c44
21 79 42 79 45 0 6 -32 67 -113 213 -17 30 -36 61 -44 68 -7 8 -20 28 -29 45
l-15 32 22 -25 22 -25 -6 35 c-5 33 -4 32 18 -13 25 -53 59 -97 75 -97 13 0
90 -165 90 -194 0 -33 45 -29 82 7 7 7 27 22 43 32 44 28 137 106 160 135 49
61 170 147 238 169 51 17 238 15 281 -3 28 -11 33 -19 31 -40 -2 -15 -9 -34
-16 -43 -11 -13 -10 -17 6 -29 10 -8 22 -14 27 -14 4 0 8 -7 8 -15 0 -17 -16
-20 -25 -5 -10 16 -68 7 -90 -15 -31 -30 -38 -54 -14 -48 11 3 22 9 25 14 13
21 26 7 21 -21 -5 -24 -3 -30 11 -30 13 -1 11 -4 -8 -14 -14 -8 -28 -12 -31
-10 -12 7 -17 -35 -8 -73 8 -35 7 -40 -23 -65 -18 -16 -38 -28 -44 -28 -7 0
-14 -4 -16 -9 -7 -19 -68 3 -108 40 -43 40 -93 53 -103 27 -4 -10 -8 -9 -16 2
-8 11 -11 12 -11 2 0 -7 -4 -10 -10 -7 -5 3 -10 0 -10 -7 0 -19 -79 -61 -112
-60 -18 0 -28 -4 -28 -14 0 -17 -22 -18 -38 -2 -9 9 -12 7 -12 -10 0 -12 -3
-22 -7 -23 -5 0 -23 -2 -40 -3 -18 -1 -40 -10 -50 -18 -10 -9 -42 -19 -70 -23
-29 -4 -53 -11 -53 -17 0 -5 -4 -7 -9 -4 -5 3 -12 -1 -15 -10 -5 -12 -10 -13
-19 -5 -10 8 -23 5 -51 -10 -21 -11 -41 -18 -43 -15 -9 9 -43 -14 -43 -29 0
-17 1 -16 -55 -20 -21 -1 -41 -8 -43 -15 -3 -7 -7 -8 -11 -2 -3 5 -31 12 -61
15 -30 3 -62 8 -71 12 -23 9 -30 -17 -13 -50 21 -40 17 -51 -8 -28 -29 27
-135 48 -155 32 -9 -8 -17 -8 -25 -2 -7 6 -25 13 -41 15 -22 4 -27 2 -23 -11
2 -9 7 -29 11 -46 6 -29 6 -29 -13 -12 -11 10 -32 20 -47 23 -26 4 -27 3 -21
-23 l7 -28 -23 26 c-13 15 -38 35 -56 45 -29 16 -34 17 -43 4 -8 -13 -11 -13
-23 3 -16 21 -78 23 -95 3 -12 -15 4 -26 38 -26 23 0 84 -46 87 -65 1 -8 -2
-15 -6 -15 -5 0 -11 -8 -13 -17 -4 -16 -6 -15 -12 3 -4 14 -15 22 -29 22 -18
0 -23 -6 -23 -29 0 -15 4 -26 8 -23 4 2 10 0 14 -6 7 -12 -18 -14 -29 -2 -11
10 -30 9 -38 -3 -5 -6 -8 -6 -8 2 0 7 -7 10 -15 7 -8 -4 -15 -1 -15 5 0 7 -8
8 -24 1 -17 -6 -26 -5 -28 2 -3 7 -15 4 -33 -8 -16 -10 -26 -13 -22 -6 5 8 2
12 -8 12 -9 0 -13 -4 -10 -10 3 -5 0 -10 -7 -11 -7 0 -30 -2 -50 -5 -24 -3
-38 0 -38 7 0 6 -6 9 -13 6 -8 -3 -20 3 -28 14 -7 10 -23 19 -35 19 -26 0 -90
26 -99 40 -4 6 -11 8 -16 5 -5 -4 -9 0 -9 7 0 13 -56 68 -69 68 -4 0 -24 16
-44 35 -20 19 -43 35 -50 35 -6 0 -23 14 -36 30 -27 35 -153 116 -196 126 -16
4 -37 13 -46 20 -9 8 -40 21 -70 30 -65 19 -74 26 -60 50 27 48 26 48 92 -5
34 -28 83 -58 108 -68 25 -9 53 -22 61 -29 8 -6 25 -15 37 -18 12 -4 25 -15
28 -26 7 -22 110 -109 145 -122 14 -5 30 -14 35 -21 6 -7 30 -28 55 -47 44
-34 47 -35 135 -34 50 0 115 4 147 8 52 7 56 9 53 32 -2 18 1 22 10 14 8 -7
12 -5 12 7 0 9 -13 23 -28 32 -25 14 -27 19 -25 78 0 35 5 63 9 63 5 0 6 8 3
18 -7 22 -4 23 114 22 84 0 190 -15 221 -31 9 -5 31 -11 50 -14 19 -3 57 -12
84 -20 59 -17 233 -26 241 -13 3 5 26 6 50 2 31 -4 49 -2 61 7 9 8 19 13 22
12 3 -1 20 3 38 9 30 11 32 15 39 76 8 81 -7 128 -59 188 -27 31 -40 55 -41
78 -1 30 1 33 22 31 23 -2 24 0 18 39 -4 22 -15 53 -26 67 -22 31 -18 39 22
39 18 0 28 5 28 15 0 8 -4 15 -10 15 -5 0 -10 11 -10 25 0 38 16 30 39 -18z
m-766 -271 c3 4 35 1 70 -5 110 -19 233 -27 333 -21 41 2 71 -9 112 -44 12
-11 22 -16 22 -12 0 4 12 -5 28 -20 15 -14 50 -41 79 -60 70 -46 86 -71 25
-40 -35 18 -99 29 -106 18 -2 -4 9 -17 25 -27 16 -11 29 -23 29 -26 0 -8 -149
9 -168 20 -9 5 -35 10 -57 12 -22 2 -51 10 -65 19 -24 16 -84 36 -177 60 -23
6 -61 25 -85 43 -24 18 -58 42 -75 52 -18 11 -33 22 -33 25 0 14 14 19 25 10
7 -5 15 -7 18 -4z m-2563 -136 c13 -25 30 -26 30 -2 1 16 1 16 11 0 6 -11 16
-15 26 -11 12 5 15 2 11 -9 -9 -22 22 -220 38 -245 16 -26 19 -83 4 -83 -5 0
-10 -7 -10 -15 0 -9 -9 -26 -20 -37 -12 -13 -18 -29 -14 -40 3 -10 1 -26 -5
-35 -10 -17 -11 -16 -17 5 -6 22 -34 32 -34 12 0 -5 -6 -10 -14 -10 -8 0 -17
-6 -19 -12 -4 -8 -6 -7 -6 4 -1 9 -4 24 -8 34 -5 13 -3 15 7 9 9 -5 11 -4 6 3
-4 7 -13 12 -20 12 -7 0 -18 19 -25 43 -7 23 -17 51 -21 63 -4 11 -11 51 -15
88 l-7 67 46 46 c26 25 44 48 40 52 -4 3 -9 0 -11 -6 -3 -7 -13 -13 -24 -13
-10 0 -19 -6 -19 -14 0 -7 -7 -19 -15 -26 -12 -10 -14 -6 -12 28 1 26 5 38 13
35 17 -6 28 17 15 30 -6 6 -11 15 -11 19 0 12 30 10 31 -2 1 -5 3 -14 4 -20 1
-5 3 -12 4 -15 0 -3 7 0 15 7 9 9 11 19 5 30 -12 21 -11 28 1 28 5 0 14 -9 20
-20z m-1525 -582 c-4 -18 -7 -45 -6 -60 1 -16 -3 -28 -9 -28 -5 0 -10 -6 -10
-14 0 -7 -7 -27 -15 -42 -8 -16 -15 -39 -15 -50 0 -12 -13 -66 -29 -120 -26
-91 -39 -147 -45 -199 -2 -11 -5 -27 -9 -35 -16 -38 -37 -158 -51 -295 -16
-145 -31 -210 -46 -200 -4 2 -13 -34 -20 -81 -13 -86 -30 -123 -28 -62 0 18
-2 52 -7 76 -4 29 -3 47 5 57 12 14 10 49 -5 88 -5 11 -2 17 8 17 16 0 28 55
27 127 0 27 6 48 17 59 12 12 19 40 23 96 3 44 9 77 15 76 14 -3 23 49 17 100
-4 36 -1 46 17 58 12 9 21 26 21 40 0 13 4 32 9 42 15 28 41 123 41 148 0 14
7 27 15 30 11 5 15 22 15 63 0 49 5 63 32 99 18 23 34 42 36 42 3 0 1 -15 -3
-32z m-1421 -757 c6 -5 40 -11 76 -14 141 -12 233 -28 277 -49 80 -38 44 -36
-204 8 -45 7 -92 14 -105 14 -32 0 -121 35 -126 50 -5 13 64 6 82 -9z m1433
-318 c30 -45 47 -82 40 -89 -4 -4 2 -19 12 -33 26 -38 125 -270 118 -277 -3
-3 -25 31 -48 77 -38 76 -114 212 -167 299 -28 44 -27 50 2 50 16 0 31 -10 43
-27z m1975 -282 c-1 -68 5 -81 44 -81 11 0 30 -11 42 -25 12 -14 30 -25 40
-25 19 0 232 -211 232 -230 0 -11 27 -48 80 -113 8 -10 43 -41 78 -68 34 -27
62 -56 62 -63 0 -8 6 -17 13 -19 7 -3 5 -6 -5 -6 -10 -1 -18 -4 -18 -9 0 -4
-22 -18 -50 -31 -38 -18 -59 -22 -90 -17 -32 5 -38 4 -34 -9 8 -20 -25 -32
-37 -14 -5 8 -7 21 -5 31 2 11 -22 33 -81 73 -46 32 -90 67 -98 79 -100 146
-147 221 -148 238 -1 11 -14 26 -29 34 -15 8 -28 22 -29 32 0 9 -3 39 -5 66
-4 33 -2 51 7 57 10 6 10 13 1 34 -15 32 -16 104 -1 142 10 26 11 27 21 9 6
-11 10 -49 10 -85z m3451 -625 c77 -36 211 -116 194 -116 -2 0 -47 13 -98 29
-52 16 -138 36 -192 46 -77 14 -97 21 -93 32 3 8 6 17 6 19 0 2 6 4 14 4 10 0
12 7 9 21 -6 20 -3 21 31 15 20 -4 78 -26 129 -50z m-5093 -245 c81 -12 190
-54 190 -73 0 -8 -224 -5 -270 5 -14 2 -31 5 -37 6 -8 1 -13 17 -13 42 0 41 0
41 33 35 17 -3 61 -10 97 -15z m5174 -323 c3 -7 7 -56 9 -108 4 -71 2 -89 -5
-72 -17 35 -31 26 -25 -15 4 -21 2 -45 -3 -53 -6 -10 -10 -11 -10 -2 0 6 -4
12 -9 12 -6 0 -9 -18 -9 -40 0 -25 4 -37 11 -33 6 4 7 1 2 -8 -5 -7 -8 -27 -7
-44 2 -21 -4 -34 -18 -43 -12 -7 -20 -8 -20 -2 0 5 -11 10 -25 10 -14 0 -25
-3 -25 -8 0 -4 -34 -42 -75 -85 -88 -92 -130 -145 -121 -154 3 -3 -4 -11 -16
-17 -12 -6 -29 -25 -39 -42 -21 -38 -203 -218 -207 -205 -2 5 4 24 13 42 14
25 14 33 4 40 -10 6 -4 25 25 85 36 70 38 78 23 89 -10 7 -17 15 -17 18 0 13
63 77 74 77 7 0 21 9 31 20 10 11 23 20 29 20 6 0 20 16 30 35 10 19 22 32 27
30 4 -3 20 9 36 26 15 17 36 38 45 47 12 11 15 24 11 44 -3 16 -2 28 3 27 23
-4 34 3 34 20 0 27 -34 16 -65 -21 -14 -16 -25 -27 -25 -24 0 6 -30 -17 -62
-46 -23 -23 -32 -23 -19 -1 6 11 6 24 0 35 -11 20 -7 26 49 85 17 19 32 41 32
49 0 8 5 14 10 14 6 0 10 9 10 21 0 55 51 77 87 37 25 -27 49 -22 73 17 18 30
25 34 37 23 20 -16 56 -19 43 -3 -7 9 -7 21 0 39 5 14 14 37 20 51 10 27 28
33 34 13z m70 -409 c-3 -53 -2 -60 12 -55 15 6 16 -1 10 -54 -4 -37 -3 -60 3
-60 13 0 24 -36 26 -85 1 -22 12 -80 24 -130 34 -142 69 -356 77 -469 2 -26 8
-54 13 -60 6 -6 6 -17 2 -24 -10 -16 -2 -110 11 -134 5 -12 5 -26 -2 -39 -12
-21 2 -76 23 -90 5 -4 1 -22 -9 -40 -12 -24 -19 -29 -22 -19 -3 8 -10 18 -16
22 -8 5 -7 8 2 8 6 0 12 8 12 18 0 14 -4 13 -19 -7 -10 -13 -23 -21 -30 -17
-6 4 -11 1 -11 -9 0 -13 4 -14 21 -4 21 11 22 10 16 -20 -6 -29 -5 -30 23 -24
34 6 42 -15 15 -37 -16 -13 -20 -46 -7 -52 5 -1 12 -15 16 -30 5 -21 3 -28 -8
-28 -8 0 -24 -12 -35 -27 -12 -16 -24 -32 -29 -38 -4 -5 -11 -18 -15 -28 -6
-15 -10 -16 -29 -6 -13 6 -25 13 -27 15 -3 3 18 32 61 83 10 12 9 13 -7 7 -42
-17 -55 -18 -55 -4 0 7 9 21 20 31 12 10 20 29 20 49 0 24 3 29 10 18 5 -8 12
-11 15 -8 8 8 -2 28 -14 28 -4 0 -24 -16 -46 -35 -21 -20 -40 -33 -42 -31 -7
7 17 76 27 76 12 0 40 29 40 41 0 5 -13 8 -28 7 -37 -3 -52 8 -52 38 0 17 5
24 20 24 11 0 20 -5 20 -10 0 -6 11 -3 25 6 25 16 36 64 14 64 -5 0 -28 -14
-50 -32 -34 -27 -42 -30 -50 -18 -8 11 -8 8 -3 -10 4 -14 9 -30 11 -36 2 -6
-8 -23 -23 -40 -19 -19 -29 -25 -32 -15 -2 7 1 18 7 24 14 14 15 57 1 57 -5 0
-10 -7 -10 -16 0 -8 -4 -12 -10 -9 -6 3 -10 -5 -10 -19 0 -14 -5 -28 -11 -32
-8 -4 -10 9 -8 45 2 28 1 51 -3 51 -5 0 -8 -20 -8 -45 0 -51 -13 -59 -28 -17
l-10 27 -1 -32 c-1 -38 -21 -45 -21 -8 0 18 -4 23 -15 19 -11 -5 -13 -2 -8 12
4 12 3 15 -5 10 -14 -9 -16 13 -2 34 8 13 10 13 10 -2 0 -11 5 -15 15 -12 8 4
15 1 15 -6 0 -6 5 -8 11 -4 6 3 9 15 6 25 -3 10 -1 19 3 21 4 2 4 35 0 73 -6
66 -14 71 -23 15 -3 -20 -5 -18 -6 8 -1 30 -19 62 -35 62 -3 0 -6 -12 -6 -26
0 -14 4 -23 10 -19 6 3 10 -4 9 -17 0 -13 -3 -17 -6 -10 -4 10 -8 10 -19 1
-12 -9 -14 -5 -15 27 -1 38 -2 38 -9 9 -8 -32 -12 -23 -14 40 -1 22 3 46 9 54
7 11 7 13 -2 7 -8 -4 -13 -2 -13 6 0 11 -2 11 -9 0 -11 -17 -44 -22 -53 -8 -5
6 -8 1 -8 -12 0 -13 -6 -30 -14 -38 -20 -19 -27 -18 -19 4 6 15 4 15 -16 -2
-18 -17 -21 -17 -15 -3 3 9 1 17 -4 17 -6 0 -16 -15 -23 -34 -7 -19 -23 -39
-35 -45 -21 -9 -23 -8 -21 19 1 17 6 30 11 30 6 0 5 5 -2 12 -7 7 -8 17 -2 28
5 9 12 41 14 71 l6 53 -26 -28 c-37 -39 -52 -22 -36 39 7 25 12 54 12 64 0 11
6 22 13 25 9 3 7 9 -5 19 -10 8 -18 24 -18 36 0 11 -5 21 -11 21 -17 0 -4 97
15 116 9 9 24 30 32 47 9 18 43 57 75 89 33 31 59 61 59 67 0 6 6 11 13 11 11
0 34 22 96 92 13 15 25 38 26 51 2 13 14 36 28 51 16 17 29 46 33 72 4 26 12
44 19 44 7 0 15 5 17 12 7 19 28 -2 28 -28 0 -13 5 -24 10 -24 9 0 12 8 14 55
1 11 6 19 13 18 7 -2 20 13 29 32 9 19 20 33 24 30 4 -3 6 -32 4 -66z m-2594
-523 c0 -6 12 -24 26 -41 43 -50 104 -143 104 -159 0 -24 -28 -19 -46 9 l-16
25 -20 -23 -20 -22 5 22 c6 28 -11 34 -45 16 -25 -12 -28 -12 -29 4 0 13 -3
11 -10 -7 -6 -14 -13 -20 -17 -14 -4 5 -17 10 -29 11 -48 2 -53 3 -53 17 0 8
7 16 15 20 8 3 15 11 15 17 0 8 -7 6 -18 -4 -21 -19 -32 -22 -32 -7 0 6 7 10
15 10 8 0 15 8 15 18 0 26 106 133 125 126 8 -4 15 -11 15 -18z"/>
<path d="M2608 3075 c2 -14 8 -23 12 -20 4 2 5 -7 2 -21 -7 -40 29 -70 109
-89 39 -10 72 -15 75 -12 11 11 -17 45 -70 85 -30 23 -59 42 -64 42 -5 0 -19
9 -32 20 -30 26 -38 25 -32 -5z"/>
<path d="M9255 11478 c-48 -17 -101 -64 -146 -131 -35 -51 -43 -71 -43 -110
-1 -40 3 -52 23 -68 26 -21 63 -24 110 -8 39 14 39 23 1 39 -40 17 -90 75 -90
105 0 33 18 41 26 12 8 -36 57 -79 84 -75 37 5 48 32 27 67 -23 39 -22 41 17
41 34 0 34 -1 34 -45 0 -81 20 -81 67 3 72 129 16 215 -110 170z"/>
<path d="M8570 11241 c0 -9 -11 -11 -40 -6 -49 8 -53 -8 -14 -54 14 -18 24
-40 23 -53 -4 -28 16 -67 44 -89 14 -12 23 -33 26 -65 5 -41 10 -50 28 -52 36
-5 57 37 49 102 -6 44 -3 62 14 96 25 49 20 60 -25 60 -26 0 -42 9 -70 37 -19
20 -35 30 -35 24z"/>
<path d="M8270 10915 c0 -33 -2 -35 -35 -35 -43 0 -47 -25 -10 -60 21 -19 24
-30 19 -57 -6 -29 -2 -38 30 -68 33 -31 36 -38 36 -88 0 -51 2 -55 25 -60 36
-6 57 37 59 127 1 39 8 81 14 93 18 34 15 43 -23 59 -19 8 -35 19 -35 25 0 6
-7 9 -15 5 -20 -7 -55 48 -48 75 3 10 0 19 -6 19 -6 0 -11 -16 -11 -35z"/>
<path d="M7963 10566 c8 -20 -19 -34 -36 -17 -37 37 -50 -12 -15 -59 13 -18
21 -43 20 -63 -1 -26 6 -41 28 -62 24 -23 30 -37 30 -71 0 -31 7 -50 25 -71
l25 -28 20 25 c39 47 51 79 40 99 -13 26 -13 90 1 131 13 37 1 52 -39 48 -18
-2 -30 7 -50 36 -28 41 -60 62 -49 32z"/>
<path d="M7937 10068 c-114 -122 -142 -159 -128 -168 24 -14 49 1 124 78 132
135 149 162 100 162 -21 0 -43 -17 -96 -72z"/>
</g>
</svg>
